<svg width="18" height="19" viewBox="0 0 18 19" fill="none" xmlns="http://www.w3.org/2000/svg">
<path d="M6.11267 8.3656H4.28019V10.2098H6.11267V8.3656ZM9.77763 8.3656H7.94515V10.2098H9.77763V8.3656ZM13.4426 8.3656H11.6101V10.2098H13.4426V8.3656ZM15.2751 1.91086H14.3588V0.0666504H12.5263V1.91086H5.19643V0.0666504H3.36395V1.91086H2.44771C1.43069 1.91086 0.615234 2.74076 0.615234 3.75507V16.6645C0.615234 17.1537 0.808298 17.6227 1.15195 17.9686C1.49561 18.3145 1.96171 18.5088 2.44771 18.5088H15.2751C15.7611 18.5088 16.2272 18.3145 16.5708 17.9686C16.9145 17.6227 17.1075 17.1537 17.1075 16.6645V3.75507C17.1075 3.26596 16.9145 2.79687 16.5708 2.45102C16.2272 2.10516 15.7611 1.91086 15.2751 1.91086ZM15.2751 16.6645H2.44771V6.52139H15.2751V16.6645Z" fill="#3E3E3E"/>
</svg>
