<svg width="33" height="32" viewBox="0 0 33 32" fill="none" xmlns="http://www.w3.org/2000/svg">
<path fill-rule="evenodd" clip-rule="evenodd" d="M14.5613 0C18.3878 0 21.5009 3.11312 21.5009 6.93961V8.39761C21.5009 9.04527 20.9753 9.5709 20.3276 9.5709C19.6799 9.5709 19.1543 9.04527 19.1543 8.39761V6.93961C19.1543 4.4053 17.094 2.34658 14.5613 2.34658H6.93491C4.40531 2.34658 2.34658 4.4053 2.34658 6.93961V24.3496C2.34658 26.8824 4.40531 28.9411 6.93491 28.9411H14.5785C17.1003 28.9411 19.1543 26.8886 19.1543 24.3668V22.8916C19.1543 22.244 19.6799 21.7183 20.3276 21.7183C20.9753 21.7183 21.5009 22.244 21.5009 22.8916V24.3668C21.5009 28.1839 18.394 31.2877 14.5785 31.2877H6.93491C3.11156 31.2877 0 28.1761 0 24.3496V6.93961C0 3.11312 3.11156 0 6.93491 0H14.5613ZM27.2017 10.253L31.7822 14.8132C31.823 14.8537 31.8596 14.8959 31.8931 14.9405L31.7822 14.8132C31.8376 14.8678 31.8869 14.9275 31.9297 14.9912C31.9485 15.02 31.9666 15.0499 31.9835 15.0805C31.9971 15.1045 32.0097 15.1295 32.0213 15.1549C32.0312 15.1774 32.0407 15.1998 32.0495 15.2227C32.0613 15.2524 32.0716 15.283 32.0807 15.3139C32.0875 15.3383 32.0938 15.3627 32.0993 15.3873C32.1063 15.4172 32.1118 15.4472 32.1161 15.4775C32.1185 15.4972 32.1209 15.5179 32.1228 15.5386C32.1264 15.5743 32.1279 15.609 32.1279 15.6438L32.1199 15.7408L32.1167 15.803C32.1164 15.8056 32.116 15.8083 32.1156 15.8109L32.1279 15.6438C32.1279 15.7307 32.1183 15.8167 32.0996 15.9003C32.0938 15.925 32.0875 15.9494 32.0805 15.9734C32.0716 16.0047 32.0613 16.0353 32.0497 16.0654C32.0407 16.0878 32.0312 16.1103 32.0211 16.1324C32.0097 16.1582 31.9971 16.1832 31.9837 16.2077C31.9666 16.2378 31.9485 16.2676 31.9291 16.2966C31.9181 16.3137 31.9061 16.3307 31.8935 16.3473C31.8563 16.3963 31.8157 16.4424 31.7718 16.4851L27.2017 21.0363C26.9733 21.2647 26.6729 21.3789 26.3741 21.3789C26.0737 21.3789 25.7718 21.2647 25.5434 21.0331C25.0866 20.5732 25.0882 19.8317 25.5465 19.3749L28.112 16.8171H12.1174C11.4698 16.8171 10.9441 16.2915 10.9441 15.6438C10.9441 14.9962 11.4698 14.4706 12.1174 14.4706H28.1151L25.5465 11.9143C25.0882 11.4575 25.0851 10.716 25.5434 10.2561C26.0002 9.79617 26.7417 9.79617 27.2017 10.253Z" fill="#41A4D5"/>
</svg>
