<svg width="20" height="13" viewBox="0 0 20 13" fill="none" xmlns="http://www.w3.org/2000/svg">
<path d="M9.92341 3.85334C9.25239 3.85334 8.60886 4.1124 8.13438 4.57355C7.6599 5.03469 7.39334 5.66013 7.39334 6.31229C7.39334 6.96444 7.6599 7.58988 8.13438 8.05102C8.60886 8.51217 9.25239 8.77123 9.92341 8.77123C10.5944 8.77123 11.238 8.51217 11.7124 8.05102C12.1869 7.58988 12.4535 6.96444 12.4535 6.31229C12.4535 5.66013 12.1869 5.03469 11.7124 4.57355C11.238 4.1124 10.5944 3.85334 9.92341 3.85334ZM9.92341 10.4105C8.80505 10.4105 7.73249 9.97875 6.94169 9.21018C6.15089 8.44161 5.70662 7.39921 5.70662 6.31229C5.70662 5.22536 6.15089 4.18296 6.94169 3.41439C7.73249 2.64582 8.80505 2.21404 9.92341 2.21404C11.0418 2.21404 12.1143 2.64582 12.9051 3.41439C13.6959 4.18296 14.1402 5.22536 14.1402 6.31229C14.1402 7.39921 13.6959 8.44161 12.9051 9.21018C12.1143 9.97875 11.0418 10.4105 9.92341 10.4105V10.4105ZM9.92341 0.164917C5.70662 0.164917 2.10549 2.71403 0.646484 6.31229C2.10549 9.91055 5.70662 12.4597 9.92341 12.4597C14.1402 12.4597 17.7413 9.91055 19.2003 6.31229C17.7413 2.71403 14.1402 0.164917 9.92341 0.164917Z" fill="#3E3E3E"/>
</svg>
