<svg width="16" height="19" viewBox="0 0 16 19" fill="none" xmlns="http://www.w3.org/2000/svg">
<path d="M11.5556 14V11.3H5.33333V7.7H11.5556V5L16 9.5L11.5556 14ZM9.77778 0.5C10.2493 0.5 10.7015 0.689642 11.0349 1.02721C11.3683 1.36477 11.5556 1.82261 11.5556 2.3V4.1H9.77778V2.3H1.77778V16.7H9.77778V14.9H11.5556V16.7C11.5556 17.1774 11.3683 17.6352 11.0349 17.9728C10.7015 18.3104 10.2493 18.5 9.77778 18.5H1.77778C1.30628 18.5 0.854097 18.3104 0.520699 17.9728C0.187301 17.6352 0 17.1774 0 16.7V2.3C0 1.82261 0.187301 1.36477 0.520699 1.02721C0.854097 0.689642 1.30628 0.5 1.77778 0.5H9.77778Z" fill="#C4C4C4"/>
</svg>
