<svg width="2299" height="469" viewBox="0 0 2299 469" fill="none" xmlns="http://www.w3.org/2000/svg">
<path d="M318.372 75H137.906L183.023 154.617H273.256L318.372 234.235V75Z" fill="#3598DB"/>
<path d="M137.906 394H318.372V234.235L273.16 313.852H183.023L137.906 394Z" fill="#3598DB"/>
<path d="M318.372 394L408.605 234.235L318.372 75V234.235V394Z" fill="#3598DB"/>
<path d="M137.906 75V234.235L183.023 154.617L137.906 75Z" fill="#3598DB"/>
<path d="M183.023 313.852V154.617L137.906 234.235L183.023 313.852Z" fill="#3598DB"/>
<path d="M137.906 394L183.023 313.852L137.906 234.235V394Z" fill="#3598DB"/>
<path d="M137.906 394L183.023 313.852L228.139 234.235L183.023 154.617L137.906 75V234.235V394Z" fill="#3598DB"/>
<path fill-rule="evenodd" clip-rule="evenodd" d="M92.7897 154.617L137.906 75V234.235L92.7897 154.617Z" fill="#3598DB"/>
<path fill-rule="evenodd" clip-rule="evenodd" d="M137.906 234.235V394L92.7897 313.852L137.906 234.235Z" fill="#3598DB"/>
<path fill-rule="evenodd" clip-rule="evenodd" d="M92.7897 154.617L137.906 75V234.235L92.7897 154.617ZM92.7897 313.852L137.906 394V234.235L92.7897 313.852Z" fill="#3598DB"/>
<path d="M137.906 75V234.235L183.023 154.617L137.906 75Z" fill="#143045"/>
<path d="M183.023 313.852V154.617L137.906 234.235L183.023 313.852Z" fill="#143045"/>
<path d="M137.906 394L183.023 313.852L137.906 234.235V394Z" fill="#143045"/>
<path d="M137.906 394L183.023 313.852L228.139 234.235L183.023 154.617L137.906 75V234.235V394Z" fill="#143045"/>
<path fill-rule="evenodd" clip-rule="evenodd" d="M92.7897 154.617L137.906 75V234.235L92.7897 154.617Z" fill="#143045"/>
<path fill-rule="evenodd" clip-rule="evenodd" d="M137.906 234.235V394L92.7897 313.852L137.906 234.235Z" fill="#143045"/>
<path fill-rule="evenodd" clip-rule="evenodd" d="M92.7897 154.617L137.906 75V234.235L92.7897 154.617ZM92.7897 313.852L137.906 394V234.235L92.7897 313.852Z" fill="#143045"/>
<path d="M574.436 153.92C604.196 153.92 626.948 162.176 642.692 178.688C658.628 195.2 666.596 218.624 666.596 248.96C666.596 279.296 658.628 302.72 642.692 319.232C626.948 335.744 604.196 344 574.436 344H493.796V153.92H574.436ZM569.54 306.56C585.668 306.56 597.38 301.76 604.676 292.16C612.164 282.368 615.908 267.968 615.908 248.96C615.908 229.952 612.164 215.648 604.676 206.048C597.38 196.256 585.668 191.36 569.54 191.36H543.332V306.56H569.54Z" fill="#143045"/>
<path d="M820.035 153.92C842.691 153.92 860.259 159.2 872.739 169.76C885.411 180.32 891.747 194.528 891.747 212.384C891.747 226.592 888.387 238.304 881.667 247.52C875.139 256.544 865.731 263.168 853.443 267.392L902.979 344H848.259L807.651 274.592H777.987V344H729.315V153.92H820.035ZM813.123 239.456C822.723 239.456 829.923 237.536 834.723 233.696C839.523 229.856 841.923 223.712 841.923 215.264C841.923 199.328 832.323 191.36 813.123 191.36H777.987V239.456H813.123Z" fill="#143045"/>
<path d="M1039.96 151.04C1059.16 151.04 1075.67 154.976 1089.49 162.848C1103.51 170.528 1114.26 181.664 1121.75 196.256C1129.24 210.848 1132.98 228.416 1132.98 248.96C1132.98 269.504 1129.24 287.072 1121.75 301.664C1114.26 316.256 1103.51 327.488 1089.49 335.36C1075.67 343.04 1059.16 346.88 1039.96 346.88C1020.56 346.88 1003.86 343.04 989.845 335.36C976.021 327.488 965.365 316.256 957.877 301.664C950.389 287.072 946.645 269.504 946.645 248.96C946.645 228.416 950.389 210.848 957.877 196.256C965.365 181.664 976.021 170.528 989.845 162.848C1003.86 154.976 1020.56 151.04 1039.96 151.04ZM1039.96 189.92C1026.13 189.92 1015.57 194.912 1008.28 204.896C1000.98 214.688 997.333 229.376 997.333 248.96C997.333 268.544 1000.98 283.328 1008.28 293.312C1015.57 303.104 1026.13 308 1039.96 308C1053.59 308 1064.05 303.104 1071.35 293.312C1078.64 283.328 1082.29 268.544 1082.29 248.96C1082.29 229.376 1078.64 214.688 1071.35 204.896C1064.05 194.912 1053.59 189.92 1039.96 189.92Z" fill="#143045"/>
<path d="M1283.12 153.92C1306.16 153.92 1324.11 159.488 1336.97 170.624C1350.03 181.568 1356.56 197.12 1356.56 217.28C1356.56 237.44 1350.03 253.088 1336.97 264.224C1324.11 275.168 1306.16 280.64 1283.12 280.64H1245.39V344H1195.85V153.92H1283.12ZM1275.34 243.488C1296.27 243.488 1306.73 234.752 1306.73 217.28C1306.73 199.808 1296.27 191.072 1275.34 191.072H1245.39V243.488H1275.34Z" fill="#143045"/>
<path d="M1466.56 153.92V229.088H1539.14V153.92H1588.68V344H1539.14V267.392H1466.56V344H1417.03V153.92H1466.56Z" fill="#143045"/>
<path d="M1659.58 344V153.92H1807.61V192.224H1709.11V230.816H1787.45V266.816H1709.11V305.696H1811.35V344H1659.58Z" fill="#143045"/>
<path d="M1960.79 153.92C1983.44 153.92 2001.01 159.2 2013.49 169.76C2026.16 180.32 2032.5 194.528 2032.5 212.384C2032.5 226.592 2029.14 238.304 2022.42 247.52C2015.89 256.544 2006.48 263.168 1994.19 267.392L2043.73 344H1989.01L1948.4 274.592H1918.74V344H1870.07V153.92H1960.79ZM1953.87 239.456C1963.47 239.456 1970.67 237.536 1975.47 233.696C1980.27 229.856 1982.67 223.712 1982.67 215.264C1982.67 199.328 1973.07 191.36 1953.87 191.36H1918.74V239.456H1953.87Z" fill="#143045"/>
<path d="M2097.43 344V153.92H2245.46V192.224H2146.96V230.816H2225.3V266.816H2146.96V305.696H2249.2V344H2097.43Z" fill="#143045"/>
</svg>
